<?xml version="1.0" encoding="UTF-8"?>
<svg width="14px" height="13px" viewBox="0 0 14 13" version="1.1" xmlns="http://www.w3.org/2000/svg" xmlns:xlink="http://www.w3.org/1999/xlink">
    <g stroke="none" stroke-width="1" fill="none" fill-rule="evenodd">
        <g fill-rule="nonzero" fill="#BEBEBE">
            <g>
                <path d="M7.37852199,5.60359935 C7.22528466,5.7561915 7.22528466,6.00091476 7.37852199,6.15350691 C8.0117102,6.7840292 8.0117102,7.80898779 7.37852199,8.43951007 L4.05356106,11.7504718 C3.42037285,12.3809941 2.3910806,12.3809941 1.75789239,11.7504718 L1.25770261,11.252388 C0.624514401,10.6218657 0.624514401,9.59690714 1.25770261,8.96638486 L4.58266354,5.6554231 C4.73590087,5.50283095 4.73590087,5.25810769 4.58266354,5.10551554 C4.42942621,4.95292339 4.18366823,4.95292339 4.0304309,5.10551554 L0.705469971,8.41647729 C0.251540522,8.86849555 0,9.47022686 0,10.1093864 C0,10.748546 0.248649252,11.3502773 0.705469971,11.8022956 L1.20565975,12.3003794 C1.67404555,12.7667931 2.28988614,13 2.90572672,13 C3.52156731,13 4.1374079,12.7667931 4.6057937,12.3003794 L7.93075463,8.98941763 C8.86752623,8.05659015 8.86752623,6.53642684 7.93075463,5.60359935 C7.78040857,5.4510072 7.53175932,5.4510072 7.37852199,5.60359935 Z" id="Shape"></path>
                <path d="M13.2971859,1.1975968 L12.7968286,0.699557744 C11.8597432,-0.233185915 10.332641,-0.233185915 9.39555556,0.699557744 L6.06948074,4.01022196 C5.13239531,4.94296562 5.13239531,6.46299232 6.06948074,7.39573598 C6.2227694,7.54831442 6.46860972,7.54831442 6.62189838,7.39573598 C6.77518705,7.24315754 6.77518705,6.99845628 6.62189838,6.84587784 C5.98849805,6.21541222 5.98849805,5.19054573 6.62189838,4.56008011 L9.9479732,1.24941589 C10.5813735,0.618950267 11.6110106,0.618950267 12.2444109,1.24941589 L12.7447683,1.74745494 C13.3781686,2.37792056 13.3781686,3.40278705 12.7447683,4.03325267 L9.41869347,7.34391689 C9.2654048,7.49649533 9.2654048,7.7411966 9.41869347,7.89377503 C9.49389168,7.96862483 9.59512004,8.00892857 9.69345617,8.00892857 C9.79179229,8.00892857 9.89302066,7.97150367 9.96821887,7.89377503 L13.2942937,4.58311081 C13.7483752,4.13113318 14,3.52945594 14,2.89035381 C14,2.25125167 13.7512674,1.64957443 13.2971859,1.1975968 Z" id="Shape"></path>
            </g>
        </g>
    </g>
</svg>